/* XPM */
static const char * arrow_k_xpm[] = {
"16 16 2 1",
" 	c None",
".	c #007f00",
"                ",
"                ",
" ..             ",
" ..      ...    ",
" ..    ....     ",
" ..  .....      ",
" ........       ",
" ...............",
" ........       ",
" ..  .....      ",
" ..    ....     ",
" ..      ...    ",
" ..             ",
"                ",
"                ",
"                "};
