/* XPM */
static const char * diff2_xpm[] = {
"16 16 3 1",
" 	c None",
".	c #007f7f",
"+	c #7FaFaF",
"                ",
"                ",
"                ",
"                ",
"       .        ",
"       ..       ",
"      .+..      ",
"     +. ..+     ",
"     .   ..     ",
"    .+   +..    ",
"   +.     ..+   ",
"   .       ..   ",
"  .+       +..  ",
"  ............  ",
"                ",
"                "};
