/* XPM */
static const char * oper_m_xpm[] = {
"16 16 3 1",
" 	c None",
".	c #007f7f",
"+	c #7FAFAF",
"                ",
"                ",
"                ",
"                ",
"   .   .        ",
"   +. .+        ",
"    +.+  ...... ",
"  ......        ",
"    +.+  ...... ",
"   +. .+        ",
"   .   .        ",
"                ",
"                ",
"                ",
"                ",
"                "};
