/* XPM */
static const char * plot_xpm[] = {
"16 16 4 1",
" 	c None",
".	c #007f7f",
"+	c #0000FF",
"@	c #FF0000",
"                ",
" .              ",
"..            + ",
" .          ++  ",
" .         +    ",
"..        +     ",
" .       +      ",
" .       +      ",
"..   @@@+       ",
" .  @  +@     @ ",
" .@@   + @   @  ",
"..    +   @@@   ",
" .  ++          ",
" .++            ",
"............... ",
" .   .   .   .  "};
