/* XPM */
static const char * axis_sh_xpm[] = {
"16 16 3 1",
" 	c None",
".	c #007f7f",
"+	c #FF0000",
"                ",
"  .             ",
". .      +      ",
"  .     +++     ",
"  .      +      ",
". .   +  +  +   ",
"  .  +++++++++  ",
"  .   +  +  +   ",
". .      +      ",
"  .     +++     ",
"  .      +      ",
". .             ",
"  .             ",
"  ............. ",
".               ",
"  .  .  .  .  . "};
