/* XPM */
static const char * squize_xpm[] = {
"16 16 3 1",
" 	c None",
".	c #007f00",
"+	c #7FFF7F",
"                ",
"                ",
"     ......     ",
"     .    .     ",
"     .    .     ",
"  .  .    .  .  ",
"  +. .    . .+  ",
"......    ......",
"  +. .    . .+  ",
"  .  .    .  .  ",
"     .    .     ",
"     .    .     ",
"     .    .     ",
"     ......     ",
"                ",
"                "};
